<svg width="40" height="36" viewBox="0 0 40 36" fill="none" xmlns="http://www.w3.org/2000/svg">
<path d="M12.7153 16.3828C15.0556 18 17.0833 20.1406 18.6736 22.6719C19.1597 23.4453 19.6042 24.2578 20 25.0938C20.3958 24.25 20.8403 23.4453 21.3264 22.6719C22.9167 20.1406 24.9444 18 27.2847 16.3828C30.3889 14.2344 34.0347 13 37.9167 13H38.6042C39.375 13 40 13.7031 40 14.5703C40 26.1328 31.6736 35.5 21.3958 35.5H20H18.6042C8.32639 35.5 0 26.1328 0 14.5703C0 13.7031 0.625 13 1.39583 13H2.08333C5.96528 13 9.61111 14.2344 12.7153 16.3828ZM20.9375 0.9375C22.0278 2.25781 25.1806 6.54687 26.7986 13.7969C24.1597 15.4844 21.8403 17.7656 20 20.4844C18.1597 17.7656 15.8403 15.4922 13.2014 13.7969C14.8125 6.54687 17.9653 2.25781 19.0625 0.9375C19.3056 0.648437 19.6458 0.5 20 0.5C20.3542 0.5 20.6944 0.648437 20.9375 0.9375Z" fill="#A07735"/>
</svg>
